<?xml version="1.0" standalone="no"?>
<!DOCTYPE svg PUBLIC "-//W3C//DTD SVG 20010904//EN"
 "http://www.w3.org/TR/2001/REC-SVG-20010904/DTD/svg10.dtd">
<svg version="1.0" xmlns="http://www.w3.org/2000/svg"
 width="2400.000000pt" height="1367.000000pt" viewBox="0 0 2400.000000 1367.000000"
 preserveAspectRatio="xMidYMid meet">
<metadata>
Created by potrace 1.16, written by Peter Selinger 2001-2019
</metadata>
<g transform="translate(0.000000,1367.000000) scale(0.100000,-0.100000)"
fill="#000000" stroke="none">
<path d="M14100 13099 c-460 -40 -952 -153 -1340 -308 -127 -51 -189 -94 -227
-158 l-28 -48 0 -4400 0 -4400 27 -50 c35 -67 90 -118 161 -151 l58 -26 3887
-2 c3698 -1 3893 0 4007 17 447 67 811 205 1158 437 646 434 1061 1097 1179
1885 21 144 18 619 -6 770 -111 715 -489 1345 -1061 1770 -273 203 -540 336
-873 434 -396 117 -880 134 -1312 45 -99 -20 -375 -103 -461 -138 -13 -6 -18
14 -33 136 -118 964 -517 1854 -1162 2588 -128 146 -375 386 -525 511 -770
636 -1671 1003 -2674 1089 -139 11 -636 11 -775 -1z"/>
<path d="M11848 12465 c-64 -21 -149 -100 -178 -167 -28 -64 -17 350 -90
-3301 l-58 -2918 63 -1139 c71 -1269 61 -1183 144 -1273 70 -76 178 -109 283
-88 104 22 193 103 222 202 10 31 37 431 82 1175 l68 1129 -67 3073 c-65 2949
-68 3075 -87 3126 -43 115 -142 187 -264 193 -44 2 -89 -3 -118 -12z"/>
<path d="M10973 11949 c-97 -18 -179 -86 -213 -175 -18 -51 -21 -168 -72
-2871 l-54 -2818 54 -1140 c40 -864 56 -1153 68 -1194 20 -70 97 -150 168
-174 190 -65 369 57 383 261 3 37 31 556 62 1154 l57 1087 -57 2713 c-31 1492
-59 2767 -61 2833 -4 105 -8 126 -30 170 -60 116 -183 178 -305 154z"/>
<path d="M8170 11294 c-46 -20 -87 -59 -113 -109 -17 -33 -22 -63 -25 -165 -2
-69 -34 -1207 -71 -2530 l-66 -2405 71 -1175 c54 -895 75 -1183 86 -1210 68
-160 298 -181 395 -37 17 26 34 67 38 90 13 96 155 2264 155 2369 0 62 -34
1209 -75 2548 -59 1881 -79 2446 -90 2485 -16 56 -59 106 -117 136 -46 23
-138 25 -188 3z"/>
<path d="M9066 11180 c-55 -28 -82 -56 -111 -115 l-25 -51 -65 -2464 -65
-2465 65 -1155 c35 -635 69 -1171 75 -1191 40 -141 211 -211 349 -143 58 29
105 85 121 143 13 50 150 2229 150 2394 0 280 -140 4864 -150 4898 -16 59 -63
114 -121 143 -67 33 -163 36 -223 6z"/>
<path d="M7270 11115 c-46 -21 -78 -52 -103 -100 -19 -39 -22 -115 -96 -2486
l-75 -2445 76 -1181 c70 -1077 79 -1185 97 -1221 76 -148 292 -150 368 -2 22
43 27 103 109 1225 l86 1180 -85 2443 -85 2444 -24 46 c-35 69 -93 105 -171
109 -41 2 -74 -2 -97 -12z"/>
<path d="M9992 11025 c-98 -43 -153 -127 -160 -245 -2 -41 -30 -1112 -61
-2380 l-57 -2305 57 -1140 c32 -627 63 -1163 69 -1192 31 -145 185 -232 334
-189 73 22 145 89 169 159 12 36 31 307 82 1199 l67 1153 -66 2371 c-54 1945
-69 2379 -81 2414 -38 107 -130 170 -249 170 -39 -1 -86 -7 -104 -15z"/>
<path d="M6374 10721 c-59 -27 -94 -77 -105 -153 -5 -35 -44 -1060 -87 -2278
l-79 -2215 83 -1187 c81 -1180 82 -1188 107 -1231 78 -132 282 -115 337 28 7
17 53 563 104 1215 l93 1185 -92 2255 c-88 2156 -93 2257 -112 2295 -25 49
-47 70 -96 90 -48 20 -103 19 -153 -4z"/>
<path d="M5481 9870 c-43 -27 -67 -56 -80 -95 -6 -16 -49 -854 -97 -1860 l-86
-1830 86 -1180 c47 -649 90 -1196 96 -1215 40 -144 250 -161 314 -26 13 27 38
294 115 1228 l99 1193 -98 1837 c-92 1722 -100 1838 -119 1876 -29 57 -73 85
-140 90 -44 2 -63 -1 -90 -18z"/>
<path d="M3741 8612 c-76 -38 -63 58 -173 -1299 l-99 -1228 99 -1180 c79 -947
102 -1186 115 -1212 46 -89 185 -84 232 7 10 19 48 387 126 1208 l112 1179
-112 1219 c-121 1327 -113 1269 -181 1306 -43 23 -75 23 -119 0z"/>
<path d="M2858 8520 c-14 -10 -30 -32 -36 -47 -6 -15 -57 -558 -113 -1206
l-103 -1177 103 -1138 c60 -658 109 -1150 116 -1168 18 -43 51 -64 101 -64 52
0 99 36 110 83 4 17 59 539 123 1159 l116 1126 -117 1174 c-64 645 -117 1181
-117 1192 -1 10 -16 33 -35 52 -29 29 -41 34 -79 34 -29 0 -53 -7 -69 -20z"/>
<path d="M4614 8461 c-40 -18 -82 -77 -88 -128 -4 -26 -47 -543 -96 -1147
l-90 -1099 90 -1156 c49 -636 93 -1178 96 -1204 19 -150 215 -189 281 -56 20
40 31 152 126 1231 l104 1186 -104 1124 c-70 754 -109 1137 -119 1165 -20 56
-63 86 -128 90 -28 1 -60 -1 -72 -6z"/>
<path d="M2023 8150 c-51 -21 -49 -9 -164 -1060 l-110 -1001 110 -982 c121
-1079 111 -1023 185 -1041 30 -8 41 -6 64 11 15 11 32 31 39 44 12 25 253
1897 253 1966 0 42 -236 1959 -246 2000 -8 30 -60 73 -87 72 -12 0 -32 -4 -44
-9z"/>
<path d="M1200 7387 c-8 -7 -21 -19 -28 -28 -12 -17 -172 -1194 -172 -1272 0
-66 158 -1224 170 -1247 14 -26 42 -40 82 -40 43 0 74 28 87 78 5 20 51 301
102 623 l92 587 -97 623 c-53 342 -101 630 -107 640 -23 44 -95 64 -129 36z"/>
<path d="M2960 2650 c-186 -24 -328 -88 -441 -200 -120 -119 -158 -215 -159
-400 0 -276 118 -430 410 -534 41 -15 146 -45 235 -67 251 -62 352 -102 394
-155 60 -76 46 -194 -29 -258 -54 -45 -128 -61 -280 -60 -118 0 -145 4 -216
27 -90 30 -181 85 -254 153 l-49 46 -143 -127 c-79 -70 -144 -133 -146 -140
-4 -19 112 -140 183 -190 117 -83 262 -140 417 -165 115 -19 389 -8 498 19
289 73 454 255 479 529 28 311 -88 505 -373 624 -39 16 -174 56 -301 89 -253
66 -346 104 -375 151 -62 103 -5 213 130 248 25 7 86 12 135 12 147 0 284 -56
400 -163 24 -23 48 -39 54 -37 16 6 291 277 291 287 0 15 -127 119 -210 173
-88 57 -195 100 -300 122 -95 19 -265 27 -350 16z"/>
<path d="M4917 2650 c-297 -37 -539 -227 -661 -517 -67 -160 -104 -407 -92
-608 30 -478 234 -792 596 -917 94 -32 98 -33 275 -33 205 0 256 10 390 74
292 140 466 436 494 841 42 604 -219 1050 -669 1145 -91 19 -246 26 -333 15z
m198 -410 c183 -30 309 -167 361 -395 28 -118 25 -379 -5 -490 -45 -170 -131
-288 -248 -343 -53 -25 -68 -27 -178 -27 -116 0 -123 1 -187 33 -115 57 -191
160 -238 323 -27 94 -38 320 -21 437 39 263 169 429 363 461 74 12 85 12 153
1z"/>
<path d="M13376 2649 c-83 -11 -231 -59 -294 -96 -276 -158 -438 -440 -474
-820 -20 -212 15 -464 90 -642 114 -270 330 -452 601 -507 116 -23 356 -15
456 15 190 57 340 173 444 345 18 31 34 63 35 73 1 12 -47 45 -164 115 -91 54
-168 98 -172 98 -4 0 -25 -26 -47 -58 -51 -75 -110 -128 -180 -161 -50 -23
-68 -26 -171 -26 -107 0 -119 2 -175 29 -124 61 -225 196 -271 366 -26 93 -26
377 0 470 59 215 183 350 357 386 169 35 326 -22 414 -151 21 -30 42 -55 46
-55 4 0 76 32 161 71 84 39 168 78 186 85 l32 14 -21 43 c-76 150 -217 284
-367 348 -120 52 -341 78 -486 58z"/>
<path d="M16770 2654 c-424 -52 -692 -338 -767 -819 -22 -149 -13 -413 21
-558 48 -208 120 -340 257 -478 83 -84 108 -103 190 -142 148 -72 196 -82 399
-82 204 0 253 10 397 81 157 77 290 218 372 396 152 327 149 812 -8 1133 -120
245 -301 392 -550 449 -72 16 -248 28 -311 20z m191 -418 c88 -19 141 -47 201
-107 119 -119 182 -366 158 -618 -33 -353 -185 -531 -451 -531 -290 0 -451
224 -452 630 0 359 122 574 357 625 80 17 107 18 187 1z"/>
<path d="M6310 2043 c0 -324 5 -633 10 -688 14 -145 45 -256 101 -372 90 -183
230 -306 429 -375 94 -32 97 -33 280 -33 164 0 194 3 264 23 131 38 230 95
322 187 67 67 88 97 132 185 105 214 112 282 112 1047 l0 613 -204 0 -205 0
-3 -627 c-4 -607 -5 -631 -26 -706 -49 -178 -147 -281 -301 -317 -173 -41
-355 49 -431 213 -58 123 -60 143 -60 820 l0 617 -210 0 -210 0 0 -587z"/>
<path d="M8450 1615 l0 -1015 205 0 205 0 2 646 3 647 53 -84 c28 -46 222
-337 430 -646 l377 -562 188 -1 187 0 0 1015 0 1015 -206 0 -206 0 4 -638 3
-639 -34 56 c-18 31 -209 318 -424 639 l-390 582 -198 0 -199 0 0 -1015z"/>
<path d="M10610 1614 l0 -1015 408 3 c401 4 408 4 503 30 402 109 646 368 714
757 17 96 20 341 5 446 -47 325 -196 553 -444 676 -198 97 -356 119 -873 119
l-313 0 0 -1016z m812 591 c107 -22 206 -74 266 -140 88 -96 127 -206 138
-395 16 -268 -80 -487 -258 -588 -105 -59 -175 -74 -370 -80 l-178 -4 0 611 0
611 164 0 c108 0 190 -5 238 -15z"/>
<path d="M14590 1615 l0 -1015 610 0 610 0 0 200 0 200 -405 0 -405 0 0 815 0
815 -205 0 -205 0 0 -1015z"/>
<path d="M18140 2009 c0 -510 3 -640 16 -726 56 -383 273 -630 614 -699 104
-21 352 -15 445 11 250 69 428 244 514 505 51 155 53 182 58 878 l5 652 -211
0 -211 0 0 -617 c0 -677 -2 -697 -60 -820 -39 -85 -120 -164 -197 -194 -88
-35 -227 -33 -305 3 -116 54 -189 148 -230 295 -21 76 -22 98 -26 706 l-3 627
-205 0 -204 0 0 -621z"/>
<path d="M20280 1614 l0 -1015 408 3 c401 4 408 4 503 30 201 55 348 135 469
258 199 202 287 490 260 850 -36 468 -261 752 -673 850 -123 29 -290 40 -649
40 l-318 0 0 -1016z m814 591 c144 -30 271 -117 329 -223 52 -95 71 -192 71
-357 1 -225 -42 -353 -155 -466 -113 -113 -257 -159 -504 -159 l-145 0 0 610
0 610 168 0 c108 0 191 -6 236 -15z"/>
</g>
</svg>
