<?xml version="1.0" standalone="no"?>
<!DOCTYPE svg PUBLIC "-//W3C//DTD SVG 20010904//EN"
 "http://www.w3.org/TR/2001/REC-SVG-20010904/DTD/svg10.dtd">
<svg version="1.0" xmlns="http://www.w3.org/2000/svg"
 width="980.000000pt" height="980.000000pt" viewBox="0 0 980.000000 980.000000"
 preserveAspectRatio="xMidYMid meet">
<metadata>
Created by potrace 1.16, written by Peter Selinger 2001-2019
</metadata>
<g transform="translate(0.000000,980.000000) scale(0.100000,-0.100000)"
fill="#000000" stroke="none">
<path d="M4560 9789 c-1035 -75 -1998 -463 -2800 -1128 -150 -123 -501 -475
-622 -621 -881 -1068 -1270 -2403 -1098 -3765 119 -934 501 -1801 1124 -2545
98 -117 370 -393 496 -504 1328 -1166 3158 -1531 4825 -962 895 305 1700 879
2281 1627 540 695 884 1520 993 2384 178 1410 -247 2798 -1185 3865 -112 128
-386 398 -509 501 -763 642 -1665 1026 -2665 1134 -174 19 -664 27 -840 14z
m325 -2603 c379 -35 659 -73 974 -132 778 -147 1558 -403 2248 -739 154 -75
204 -104 248 -146 103 -97 156 -251 135 -389 -31 -198 -226 -403 -406 -426
-90 -11 -163 10 -358 102 -814 387 -1635 631 -2506 744 -971 126 -1995 78
-2930 -136 -240 -55 -270 -59 -347 -46 -269 45 -435 302 -368 567 35 137 135
273 238 323 58 29 210 68 472 121 425 86 832 140 1290 170 216 15 1102 6 1310
-13z m-300 -1946 c976 -63 1886 -295 2769 -706 293 -137 354 -177 415 -272 36
-56 61 -147 61 -217 -1 -150 -180 -434 -316 -501 -90 -44 -137 -34 -379 83
-408 196 -756 331 -1145 442 -1127 322 -2377 340 -3520 52 -203 -51 -227 -54
-296 -42 -136 25 -238 104 -297 229 -29 61 -32 76 -31 167 0 155 45 292 132
402 59 74 111 100 285 144 458 117 907 185 1457 222 118 8 723 6 865 -3z
m-210 -1830 c829 -39 1576 -221 2315 -565 186 -87 356 -177 386 -206 84 -79
144 -312 123 -479 -17 -135 -80 -224 -198 -278 -44 -21 -72 -26 -132 -27 l-75
0 -270 132 c-403 197 -712 312 -1096 407 -450 112 -820 156 -1307 156 -562 0
-913 -52 -1570 -230 -93 -25 -123 -25 -204 0 -82 25 -164 96 -202 174 -47 97
-43 249 11 408 53 156 116 222 250 263 441 135 961 222 1459 245 242 11 273
11 510 0z"/>
</g>
</svg>
