<?xml version="1.0" standalone="no"?>
<!DOCTYPE svg PUBLIC "-//W3C//DTD SVG 20010904//EN"
 "http://www.w3.org/TR/2001/REC-SVG-20010904/DTD/svg10.dtd">
<svg version="1.0" xmlns="http://www.w3.org/2000/svg"
 width="1200.000000pt" height="845.000000pt" viewBox="0 0 1200.000000 845.000000"
 preserveAspectRatio="xMidYMid meet">
<metadata>
Created by potrace 1.16, written by Peter Selinger 2001-2019
</metadata>
<g transform="translate(0.000000,845.000000) scale(0.100000,-0.100000)"
fill="#000000" stroke="none">
<path d="M4880 8443 c-281 -4 -1018 -24 -1275 -33 -1320 -50 -2099 -128 -2407
-240 -435 -158 -781 -515 -928 -959 -160 -483 -270 -1694 -270 -2986 0 -1317
112 -2535 276 -3007 175 -503 584 -864 1114 -983 511 -115 1652 -190 3430
-226 635 -13 2452 -7 3005 10 1799 55 2667 129 3039 258 428 149 775 492 926
918 74 210 146 621 195 1114 22 228 23 3646 0 3862 -50 481 -119 858 -195
1074 -171 481 -583 848 -1085 965 -500 117 -1651 195 -3390 230 -411 8 -1988
10 -2435 3z m1528 -3315 c855 -492 1553 -899 1552 -904 -2 -8 -3081 -1787
-3117 -1801 -10 -4 -13 360 -13 1802 0 1442 3 1806 13 1802 6 -2 711 -407
1565 -899z"/>
</g>
</svg>
